<mxfile host="app.diagrams.net" modified="2024-06-11T18:16:04.107Z" agent="Mozilla/5.0 (Windows NT 10.0; Win64; x64) AppleWebKit/537.36 (KHTML, like Gecko) Chrome/125.0.0.0 Safari/537.36" etag="IqNpP_XXShOJa3Y3LfhM" version="24.5.3" type="device">
  <diagram id="piDafpqhtRUU5qUU-vj8" name="Page-1">
    <mxGraphModel dx="1877" dy="1726" grid="1" gridSize="10" guides="1" tooltips="1" connect="1" arrows="1" fold="1" page="1" pageScale="1" pageWidth="827" pageHeight="1169" math="0" shadow="0">
      <root>
        <mxCell id="0" />
        <mxCell id="1" parent="0" />
        <mxCell id="GRjJk_PplDnbiY5jg0T1-1" value="" style="swimlane;startSize=0;" parent="1" vertex="1">
          <mxGeometry x="-20" y="-10" width="810" height="670" as="geometry" />
        </mxCell>
        <mxCell id="GRjJk_PplDnbiY5jg0T1-2" value="" style="line;strokeWidth=1" parent="GRjJk_PplDnbiY5jg0T1-1" vertex="1">
          <mxGeometry y="610" width="800" height="10" as="geometry" />
        </mxCell>
        <mxCell id="GRjJk_PplDnbiY5jg0T1-3" value="" style="html=1;shadow=0;dashed=0;shape=mxgraph.bootstrap.rrect;rSize=5;strokeColor=none;html=1;whiteSpace=wrap;fillColor=#6C767D;fontColor=#ffffff;sketch=0;" parent="GRjJk_PplDnbiY5jg0T1-1" vertex="1">
          <mxGeometry x="10" y="130" width="190" height="450" as="geometry" />
        </mxCell>
        <mxCell id="GRjJk_PplDnbiY5jg0T1-4" value="Dashboard" style="strokeColor=inherit;fillColor=inherit;gradientColor=inherit;fontColor=inherit;html=1;shadow=0;dashed=0;shape=mxgraph.bootstrap.topButton;rSize=5;perimeter=none;whiteSpace=wrap;resizeWidth=1;sketch=0;" parent="GRjJk_PplDnbiY5jg0T1-3" vertex="1">
          <mxGeometry width="190" height="30" relative="1" as="geometry" />
        </mxCell>
        <mxCell id="GRjJk_PplDnbiY5jg0T1-6" value="Payments" style="strokeColor=inherit;fillColor=inherit;gradientColor=inherit;fontColor=inherit;html=1;shadow=0;dashed=0;perimeter=none;whiteSpace=wrap;resizeWidth=1;sketch=0;" parent="GRjJk_PplDnbiY5jg0T1-3" vertex="1">
          <mxGeometry width="190" height="30" relative="1" as="geometry">
            <mxPoint y="60" as="offset" />
          </mxGeometry>
        </mxCell>
        <mxCell id="GRjJk_PplDnbiY5jg0T1-7" value="Profile" style="strokeColor=#666666;fillColor=#f5f5f5;html=1;shadow=0;dashed=0;perimeter=none;whiteSpace=wrap;resizeWidth=1;sketch=0;gradientColor=#b3b3b3;" parent="GRjJk_PplDnbiY5jg0T1-3" vertex="1">
          <mxGeometry width="190" height="30" relative="1" as="geometry">
            <mxPoint y="90" as="offset" />
          </mxGeometry>
        </mxCell>
        <mxCell id="GRjJk_PplDnbiY5jg0T1-8" value="" style="strokeColor=inherit;fillColor=inherit;gradientColor=inherit;fontColor=inherit;html=1;shadow=0;dashed=0;perimeter=none;whiteSpace=wrap;resizeWidth=1;sketch=0;" parent="GRjJk_PplDnbiY5jg0T1-3" vertex="1">
          <mxGeometry width="190" height="30" relative="1" as="geometry">
            <mxPoint y="120" as="offset" />
          </mxGeometry>
        </mxCell>
        <mxCell id="GRjJk_PplDnbiY5jg0T1-9" value="Log Out" style="strokeColor=inherit;fillColor=inherit;gradientColor=inherit;fontColor=inherit;html=1;shadow=0;dashed=0;shape=mxgraph.bootstrap.bottomButton;rSize=5;perimeter=none;whiteSpace=wrap;resizeWidth=1;resizeHeight=0;sketch=0;" parent="GRjJk_PplDnbiY5jg0T1-3" vertex="1">
          <mxGeometry y="1" width="190" height="30" relative="1" as="geometry">
            <mxPoint y="-280" as="offset" />
          </mxGeometry>
        </mxCell>
        <mxCell id="HpFnpw4ZRS7udG2Ug0MH-2" value="Invoices" style="strokeColor=inherit;fillColor=inherit;gradientColor=inherit;fontColor=inherit;html=1;shadow=0;dashed=0;perimeter=none;whiteSpace=wrap;resizeWidth=1;sketch=0;" parent="GRjJk_PplDnbiY5jg0T1-3" vertex="1">
          <mxGeometry y="30" width="190" height="30" as="geometry" />
        </mxCell>
        <mxCell id="F_rH-0ruieIvMkDBnVIe-3" value="2" style="ellipse;shape=doubleEllipse;whiteSpace=wrap;html=1;aspect=fixed;" vertex="1" parent="GRjJk_PplDnbiY5jg0T1-3">
          <mxGeometry x="120" y="110" width="70" height="70" as="geometry" />
        </mxCell>
        <mxCell id="GRjJk_PplDnbiY5jg0T1-13" value="2024 SISONKE Invoicing System" style="text;html=1;align=center;verticalAlign=middle;resizable=0;points=[];autosize=1;strokeColor=none;fillColor=none;" parent="GRjJk_PplDnbiY5jg0T1-1" vertex="1">
          <mxGeometry x="330" y="630" width="200" height="30" as="geometry" />
        </mxCell>
        <mxCell id="GRjJk_PplDnbiY5jg0T1-17" value="" style="line;strokeWidth=1" parent="GRjJk_PplDnbiY5jg0T1-1" vertex="1">
          <mxGeometry x="10" y="100" width="780" height="10" as="geometry" />
        </mxCell>
        <mxCell id="HpFnpw4ZRS7udG2Ug0MH-9" value="" style="shape=mxgraph.mockup.containers.marginRect;rectMarginTop=10;strokeColor=#666666;strokeWidth=1;dashed=0;rounded=1;arcSize=5;recursiveResize=0;html=1;whiteSpace=wrap;" parent="GRjJk_PplDnbiY5jg0T1-1" vertex="1">
          <mxGeometry x="220" y="220" width="358" height="240" as="geometry" />
        </mxCell>
        <mxCell id="HpFnpw4ZRS7udG2Ug0MH-10" value="&lt;font style=&quot;font-size: 11px;&quot;&gt;Profile Details&lt;/font&gt;" style="shape=rect;strokeColor=none;fillColor=#008cff;strokeWidth=1;dashed=0;rounded=1;arcSize=20;fontColor=#ffffff;fontSize=17;spacing=2;spacingTop=-2;align=left;autosize=1;spacingLeft=4;resizeWidth=0;resizeHeight=0;perimeter=none;html=1;whiteSpace=wrap;" parent="HpFnpw4ZRS7udG2Ug0MH-9" vertex="1">
          <mxGeometry x="5" width="90" height="30" as="geometry" />
        </mxCell>
        <mxCell id="GRjJk_PplDnbiY5jg0T1-21" value="UserName" style="text;html=1;align=center;verticalAlign=middle;whiteSpace=wrap;rounded=0;fontSize=15;" parent="HpFnpw4ZRS7udG2Ug0MH-9" vertex="1">
          <mxGeometry y="30" width="98" height="30" as="geometry" />
        </mxCell>
        <mxCell id="GRjJk_PplDnbiY5jg0T1-22" value="Firstname" style="text;html=1;align=center;verticalAlign=middle;whiteSpace=wrap;rounded=0;fontSize=15;" parent="HpFnpw4ZRS7udG2Ug0MH-9" vertex="1">
          <mxGeometry x="19" y="60" width="60" height="30" as="geometry" />
        </mxCell>
        <mxCell id="GRjJk_PplDnbiY5jg0T1-23" value="Lastname" style="text;html=1;align=center;verticalAlign=middle;whiteSpace=wrap;rounded=0;fontSize=15;" parent="HpFnpw4ZRS7udG2Ug0MH-9" vertex="1">
          <mxGeometry x="20" y="90" width="60" height="30" as="geometry" />
        </mxCell>
        <mxCell id="GRjJk_PplDnbiY5jg0T1-24" value="Email&lt;div style=&quot;font-size: 15px;&quot;&gt;&lt;br style=&quot;font-size: 15px;&quot;&gt;&lt;/div&gt;" style="text;html=1;align=left;verticalAlign=middle;whiteSpace=wrap;rounded=0;fontSize=15;" parent="HpFnpw4ZRS7udG2Ug0MH-9" vertex="1">
          <mxGeometry x="190" y="70" width="82" height="20" as="geometry" />
        </mxCell>
        <mxCell id="GRjJk_PplDnbiY5jg0T1-25" value="Address&lt;div style=&quot;font-size: 15px;&quot;&gt;&lt;br style=&quot;font-size: 15px;&quot;&gt;&lt;/div&gt;" style="text;html=1;align=center;verticalAlign=middle;whiteSpace=wrap;rounded=0;fontSize=15;" parent="HpFnpw4ZRS7udG2Ug0MH-9" vertex="1">
          <mxGeometry x="174" y="100" width="93" height="30" as="geometry" />
        </mxCell>
        <mxCell id="GRjJk_PplDnbiY5jg0T1-26" value="Phone number" style="text;html=1;align=center;verticalAlign=middle;whiteSpace=wrap;rounded=0;fontSize=15;" parent="HpFnpw4ZRS7udG2Ug0MH-9" vertex="1">
          <mxGeometry x="174" y="30" width="138" height="30" as="geometry" />
        </mxCell>
        <mxCell id="GRjJk_PplDnbiY5jg0T1-27" value="Role" style="text;html=1;align=center;verticalAlign=middle;whiteSpace=wrap;rounded=0;fontSize=15;" parent="HpFnpw4ZRS7udG2Ug0MH-9" vertex="1">
          <mxGeometry y="120" width="71" height="30" as="geometry" />
        </mxCell>
        <mxCell id="HpFnpw4ZRS7udG2Ug0MH-15" value="" style="shape=image;html=1;verticalAlign=top;verticalLabelPosition=bottom;labelBackgroundColor=#ffffff;imageAspect=0;aspect=fixed;image=https://cdn1.iconfinder.com/data/icons/iconoir-vol-3/24/profile-circled-128.png" parent="GRjJk_PplDnbiY5jg0T1-1" vertex="1">
          <mxGeometry x="210" y="120" width="100" height="100" as="geometry" />
        </mxCell>
        <mxCell id="GRjJk_PplDnbiY5jg0T1-36" value="LOGO" style="whiteSpace=wrap;html=1;rounded=0;shadow=0;labelBackgroundColor=none;strokeWidth=1;fontFamily=Verdana;fontSize=28;align=center;comic=1;" parent="GRjJk_PplDnbiY5jg0T1-1" vertex="1">
          <mxGeometry x="10" y="20" width="100" height="50" as="geometry" />
        </mxCell>
        <mxCell id="GRjJk_PplDnbiY5jg0T1-18" value="Profile" style="text;spacingTop=-5;fontStyle=1" parent="GRjJk_PplDnbiY5jg0T1-1" vertex="1">
          <mxGeometry x="20" y="110" width="80" height="20" as="geometry" />
        </mxCell>
        <mxCell id="GRjJk_PplDnbiY5jg0T1-16" value="" style="line;strokeWidth=1" parent="GRjJk_PplDnbiY5jg0T1-1" vertex="1">
          <mxGeometry x="10" y="80" width="780" height="10" as="geometry" />
        </mxCell>
        <mxCell id="F_rH-0ruieIvMkDBnVIe-1" value="1" style="ellipse;shape=doubleEllipse;whiteSpace=wrap;html=1;aspect=fixed;" vertex="1" parent="GRjJk_PplDnbiY5jg0T1-1">
          <mxGeometry x="330" y="10" width="70" height="70" as="geometry" />
        </mxCell>
        <mxCell id="F_rH-0ruieIvMkDBnVIe-2" value="3" style="ellipse;shape=doubleEllipse;whiteSpace=wrap;html=1;aspect=fixed;" vertex="1" parent="GRjJk_PplDnbiY5jg0T1-1">
          <mxGeometry x="508" y="130" width="70" height="70" as="geometry" />
        </mxCell>
        <mxCell id="F_rH-0ruieIvMkDBnVIe-4" value="4" style="ellipse;shape=doubleEllipse;whiteSpace=wrap;html=1;aspect=fixed;" vertex="1" parent="GRjJk_PplDnbiY5jg0T1-1">
          <mxGeometry x="550" y="595" width="70" height="70" as="geometry" />
        </mxCell>
        <mxCell id="F_rH-0ruieIvMkDBnVIe-5" value="&lt;ol style=&quot;font-size: 16px;&quot;&gt;&lt;li style=&quot;font-size: 16px;&quot;&gt;Navigation Bar Component&lt;/li&gt;&lt;li style=&quot;font-size: 16px;&quot;&gt;Side bar Component&lt;/li&gt;&lt;li style=&quot;font-size: 16px;&quot;&gt;Main Body Component&lt;/li&gt;&lt;li style=&quot;font-size: 16px;&quot;&gt;Footer Component&lt;/li&gt;&lt;/ol&gt;" style="text;strokeColor=none;fillColor=none;html=1;whiteSpace=wrap;verticalAlign=middle;overflow=hidden;fontSize=16;" vertex="1" parent="1">
          <mxGeometry x="810" y="90" width="220" height="160" as="geometry" />
        </mxCell>
      </root>
    </mxGraphModel>
  </diagram>
</mxfile>
